<svg xmlns="http://www.w3.org/2000/svg" xmlns:odm="http://product.corel.com/CGS/11/cddns/" xml:space="preserve" width="1818" height="1713" style="shape-rendering: geometricprecision; text-rendering: geometricprecision; fill-rule: evenodd;"><rect id="backgroundrect" width="100%" height="100%" x="0" y="0" fill="none" stroke="none"/>
 <defs>
  <style type="text/css">
   <![CDATA[
    .fil2 {fill:#999696}
    .fil0 {fill:#C7C7C7}
    .fil1 {fill:#cc0000}
   ]]>
  </style>
 </defs>

<g class="currentLayer" style=""><title>Layer 1</title>

  <path class="fil1" d="M342.17789060603536,711.690743148496 l-4.160210729340804,-4.942296558093062 c191.36969354967698,-158.153489858978 419.141230981086,-261.9417175789323 643.7926103654894,-363.7530266756494 l4.160210729340804,4.942296558093062 c-472.1839177801812,741.3444837139593 -511.7059197089189,943.9786425957749 -513.7860250735893,1038.8707365111618 c-5.200263411676006,176.93421677973163 180.96916672632497,326.1915728341421 280.81422423050424,326.1915728341421 c134.16679602124094,0 365.05849149965553,-312.35314247148153 444.1024953571308,-411.1990736333428 c634.4321362244726,-788.7905306716527 684.3546649765623,-1082.3629462223807 575.1491333313661,-1116.959022129032 c-78.00395117514007,-26.688401413702536 -308.8956466535547,256.99942102083924 -281.85427691283945,406.2567770752497 c-518.9862884852653,781.8713154903224 -635.4721889068078,840.1904148758206 -703.0756132585959,861.93651973143 c-54.08273948143045,16.80380829751641 -69.68352971645847,-80.06520424110761 -64.48326630478246,-137.39584431498713 c5.200263411676006,-68.20369250168426 89.44453068082728,-278.7455258764487 534.5870787202933,-951.8863170887238 c27.041369740715226,-39.5383724647445 94.64479409250329,-132.45354775689407 94.64479409250329,-178.91113540296885 c0,-33.60761659503282 -76.96389849280487,-184.84189127268053 -166.40842917363216,-184.84189127268053 c-179.92911404398978,6.919215181330287 -924.6068345959936,366.7184046105052 -1059.81368329957,484.3450626931201 c-86.32437263382168,76.11136699463316 -125.84637456255932,191.76110645401081 -125.84637456255932,302.4685493552954 c0,28.66532003693976 7.280368776346407,125.53433257556378 54.08273948143045,125.53433257556378 c39.52200192873764,0 191.36969354967698,-94.8920939153868 418.1011782987508,-137.39584431498713 c19.76100096436882,-4.942296558093062 109.2055316451961,-11.86151173942335 109.2055316451961,-47.4460469576934 c0,-35.58453521827005 -80.08405653981048,-23.7230234788467 -99.8450575041793,-23.7230234788467 l-139.36705943291693,7.9076744929489005 z" id="svg_2"/>
















 </g></svg>
