<svg xmlns="http://www.w3.org/2000/svg" viewBox="0 0 663 1005" width="663" height="1005"><defs><clipPath clipPathUnits="userSpaceOnUse" id="cp1"><path d="M7.35 -13.09L658.53 -13.09C667.38 -13.09 674.53 -5.94 674.53 2.91L674.53 996.09C674.53 1004.94 667.38 1012.09 658.53 1012.09L7.35 1012.09C-1.5 1012.09 -8.65 1004.94 -8.65 996.09L-8.65 2.91C-8.65 -5.94 -1.5 -13.09 7.35 -13.09Z" /></clipPath><linearGradient id="grd1" gradientUnits="userSpaceOnUse"  x1="132.496" y1="796" x2="132.496" y2="1047.781"><stop offset="0" stop-color="#4fd5df" stop-opacity="0.39" /><stop offset="1" stop-color="#4fd5df"  /></linearGradient><linearGradient id="grd2" gradientUnits="userSpaceOnUse"  x1="194.905" y1="950.466" x2="-8.375" y2="950.466"><stop offset="0" stop-color="#4fd5df"  /><stop offset="1" stop-color="#269ca5"  /></linearGradient><linearGradient id="grd3" gradientUnits="userSpaceOnUse"  x1="561.747" y1="1081.543" x2="561.747" y2="940.322"><stop offset="0" stop-color="#4fd5df"  /><stop offset="1" stop-color="#0d8f99"  /></linearGradient><linearGradient id="grd4" gradientUnits="userSpaceOnUse"  x1="56.262" y1="-73.82" x2="56.262" y2="116.659"><stop offset="0" stop-color="#4fd5df"  /><stop offset="0.684" stop-color="#d31c5b"  /></linearGradient><linearGradient id="grd5" gradientUnits="userSpaceOnUse"  x1="633.693" y1="-101.897" x2="633.693" y2="88.654"><stop offset="0" stop-color="#4fd5df"  /><stop offset="1" stop-color="#d31c5b"  /></linearGradient></defs><style>tspan { white-space:pre }.shp0 { fill: url(#grd1) } .shp1 { fill: url(#grd2) } .shp2 { fill: url(#grd3) } .shp3 { fill: url(#grd4) } .shp4 { fill: url(#grd5) } </style><g clip-path="url(#cp1)"><path class="shp0" d="M-8.56 807.23C-8.56 807.23 26.22 781.38 58.4 804.47C90.59 827.57 39.69 898.2 93.33 915.42C146.98 932.63 178.51 890.19 206.09 924.74C233.66 959.29 178.4 990.71 194.18 1009.69C209.97 1028.68 245.6 995.05 265.14 1011.91C284.69 1028.76 265.1 1048.09 265.1 1048.09L-8.83 1047.77L-8.56 807.23Z" /><path class="shp1" d="M-8.62 861.62C-8.62 861.62 16.5 841.61 39.76 859.48C63.01 877.36 26.23 932.02 64.98 945.34C103.73 958.66 137.75 905.84 167.21 945.46C196.68 985.07 126.43 1003.6 137.83 1018.29C149.23 1032.98 174.97 1006.95 189.09 1020C203.21 1033.04 189.06 1048 189.06 1048L-8.83 1047.77L-8.62 861.62Z" /><path class="shp2" d="M492.66 1061.43C478.68 1051.19 506.75 1023.34 492.81 997.49C478.87 971.63 498.16 927.55 529.16 943.84C560.16 960.13 522.4 990.31 556.98 990.4C591.57 990.49 662.59 1044.46 624.24 1071.98C585.89 1099.5 578.13 1045.75 556.78 1071.81C535.44 1097.87 506.64 1071.68 492.66 1061.43Z" /><path class="shp3" d="M-36.91 -46.79C-55.8 -33.01 -17.96 4.63 -36.84 39.48C-55.72 74.33 -29.78 133.85 12.11 111.94C53.99 90.03 3.08 49.23 49.77 49.2C96.46 49.16 192.47 -23.48 140.76 -60.7C89.04 -97.93 78.45 -25.42 49.69 -60.63C20.93 -95.84 -18.01 -60.58 -36.91 -46.79Z" /><path class="shp4" d="M727.04 59.49C745.89 45.65 707.95 8.13 726.73 -26.78C745.51 -61.68 719.4 -121.12 677.58 -99.09C635.76 -77.06 686.78 -36.41 640.09 -36.24C593.4 -36.06 497.6 36.86 549.41 73.93C601.22 111 611.62 38.47 640.48 73.59C669.33 108.71 708.18 73.34 727.04 59.49Z" /></g></svg>