<svg xmlns="http://www.w3.org/2000/svg" width="663" height="1005" style=""><rect id="backgroundrect" width="100%" height="100%" x="0" y="0" fill="none" stroke="none"/><defs><clipPath clipPathUnits="userSpaceOnUse" id="cp1"><path d="M7.35 -13.09L658.53 -13.09C667.38 -13.09 674.53 -5.94 674.53 2.91L674.53 996.09C674.53 1004.94 667.38 1012.09 658.53 1012.09L7.35 1012.09C-1.5 1012.09 -8.65 1004.94 -8.65 996.09L-8.65 2.91C-8.65 -5.94 -1.5 -13.09 7.35 -13.09Z" id="svg_1"/></clipPath><linearGradient id="grd1" gradientUnits="userSpaceOnUse" x1="132.49600219726562" y1="796" x2="132.49600219726562" y2="1047.781005859375"><stop offset="0" stop-color="#4fd5df" stop-opacity="0.39"/><stop offset="1" stop-color="#4fd5df"/></linearGradient><linearGradient id="grd2" gradientUnits="userSpaceOnUse" x1="194.90499877929688" y1="950.4660034179688" x2="-8.375" y2="950.4660034179688"><stop offset="0" stop-color="#4fd5df"/><stop offset="1" stop-color="#269ca5"/></linearGradient><linearGradient id="grd3" gradientUnits="userSpaceOnUse" x1="561.7470092773438" y1="1081.54296875" x2="561.7470092773438" y2="940.322021484375"><stop offset="0" stop-color="#4fd5df"/><stop offset="1" stop-color="#0d8f99"/></linearGradient><linearGradient id="grd4" gradientUnits="userSpaceOnUse" x1="56.262001037597656" y1="-73.81999969482422" x2="56.262001037597656" y2="116.65899658203125"><stop offset="0" stop-color="#4fd5df"/><stop offset="0.684" stop-color="#d31c5b"/></linearGradient><linearGradient id="grd5" gradientUnits="userSpaceOnUse" x1="633.6929931640625" y1="-101.89700317382812" x2="633.6929931640625" y2="88.65399932861328"><stop offset="0" stop-color="#4fd5df"/><stop offset="1" stop-color="#d31c5b"/></linearGradient></defs><style>tspan { white-space:pre }.shp0 { fill: url(#grd1) } .shp1 { fill: url(#grd2) } .shp2 { fill: url(#grd3) } .shp3 { fill: url(#grd4) } .shp4 { fill: url(#grd5) } </style><g class="currentLayer" style=""><title>Layer 1</title><path class="shp0" d="M-8.56,807.9442857313156 C-8.56,807.9442857313156 26.22,782.0942857313156 58.4,805.1842857313156 C90.59,828.2842857313157 39.69,898.9142857313157 93.33,916.1342857313156 C146.98,933.3442857313156 178.51,890.9042857313157 206.09,925.4542857313156 C233.66,960.0042857313156 178.4,991.4242857313156 194.18,1010.4042857313157 C209.97,1029.3942857313157 245.6,995.7642857313156 265.14,1012.6242857313156 C284.69,1029.4742857313156 265.1,1048.8042857313155 265.1,1048.8042857313155 L-8.83,1048.4842857313156 L-8.56,807.9442857313156 z" id="svg_3"/><path class="shp1" d="M-8.620000000000001,862.3342857313156 C-8.620000000000001,862.3342857313156 16.5,842.3242857313156 39.76,860.1942857313156 C63.01,878.0742857313156 26.23,932.7342857313156 64.98,946.0542857313156 C103.73,959.3742857313156 137.75,906.5542857313156 167.21,946.1742857313156 C196.68,985.7842857313157 126.43,1004.3142857313156 137.83,1019.0042857313156 C149.23,1033.6942857313156 174.97,1007.6642857313157 189.09,1020.7142857313156 C203.21,1033.7542857313156 189.06,1048.7142857313156 189.06,1048.7142857313156 L-8.83,1048.4842857313156 L-8.620000000000001,862.3342857313156 z" id="svg_4"/><path class="shp2" d="M492.66,1062.1442857313157 C478.68,1051.9042857313157 506.75,1024.0542857313158 492.81,998.2042857313156 C478.87,972.3442857313156 498.16,928.2642857313156 529.16,944.5542857313156 C560.16,960.8442857313156 522.4,991.0242857313156 556.98,991.1142857313156 C591.57,991.2042857313156 662.59,1045.1742857313156 624.24,1072.6942857313156 C585.89,1100.2142857313156 578.13,1046.4642857313156 556.78,1072.5242857313156 C535.44,1098.5842857313155 506.64,1072.3942857313157 492.66,1062.1442857313157 z" id="svg_5"/><path class="shp4" d="M727.04,60.204285731315615 C745.89,46.36428573131561 707.95,8.844285731315614 726.73,-26.06571426868439 C745.51,-60.96571426868439 719.4,-120.40571426868439 677.58,-98.37571426868439 C635.76,-76.34571426868439 686.78,-35.695714268684384 640.09,-35.52571426868439 C593.4,-35.34571426868439 497.6,37.57428573131561 549.41,74.64428573131562 C601.22,111.71428573131561 611.62,39.18428573131561 640.48,74.30428573131562 C669.33,109.4242857313156 708.18,74.05428573131562 727.04,60.204285731315615 z" id="svg_7"/></g></svg>